<?xml version="1.0" encoding="UTF-8" standalone="no"?>
<!DOCTYPE svg PUBLIC "-//W3C//DTD SVG 1.1//EN"
 "http://www.w3.org/Graphics/SVG/1.1/DTD/svg11.dtd">
<!-- Generated by graphviz version 2.40.1 (20161225.0304)
 -->
<!-- Title: Tree Pages: 1 -->
<svg width="1030pt" height="477pt"
 viewBox="0.00 0.00 1029.50 477.00" xmlns="http://www.w3.org/2000/svg" xmlns:xlink="http://www.w3.org/1999/xlink">
<g id="graph0" class="graph" transform="scale(1 1) rotate(0) translate(4 473)">
<title>Tree</title>
<polygon fill="#ffffff" stroke="transparent" points="-4,4 -4,-473 1025.5,-473 1025.5,4 -4,4"/>
<!-- 0 -->
<g id="node1" class="node">
<title>0</title>
<polygon fill="#afd7f4" stroke="#000000" points="649.5,-469 497.5,-469 497.5,-401 649.5,-401 649.5,-469"/>
<text text-anchor="middle" x="573.5" y="-453.8" font-family="Times,serif" font-size="14.00" fill="#000000">worst radius &lt;= 16.795</text>
<text text-anchor="middle" x="573.5" y="-438.8" font-family="Times,serif" font-size="14.00" fill="#000000">samples = 426</text>
<text text-anchor="middle" x="573.5" y="-423.8" font-family="Times,serif" font-size="14.00" fill="#000000">value = [159, 267]</text>
<text text-anchor="middle" x="573.5" y="-408.8" font-family="Times,serif" font-size="14.00" fill="#000000">class = 양성</text>
</g>
<!-- 1 -->
<g id="node2" class="node">
<title>1</title>
<polygon fill="#4ca6e8" stroke="#000000" points="565,-365 370,-365 370,-297 565,-297 565,-365"/>
<text text-anchor="middle" x="467.5" y="-349.8" font-family="Times,serif" font-size="14.00" fill="#000000">worst concave points &lt;= 0.136</text>
<text text-anchor="middle" x="467.5" y="-334.8" font-family="Times,serif" font-size="14.00" fill="#000000">samples = 284</text>
<text text-anchor="middle" x="467.5" y="-319.8" font-family="Times,serif" font-size="14.00" fill="#000000">value = [25, 259]</text>
<text text-anchor="middle" x="467.5" y="-304.8" font-family="Times,serif" font-size="14.00" fill="#000000">class = 양성</text>
</g>
<!-- 0&#45;&gt;1 -->
<g id="edge1" class="edge">
<title>0&#45;&gt;1</title>
<path fill="none" stroke="#000000" d="M538.7916,-400.9465C529.4574,-391.7884 519.2604,-381.7838 509.5727,-372.2788"/>
<polygon fill="#000000" stroke="#000000" points="511.8757,-369.6351 502.2863,-365.13 506.9733,-374.6318 511.8757,-369.6351"/>
<text text-anchor="middle" x="502.5244" y="-386.4289" font-family="Times,serif" font-size="14.00" fill="#000000">True</text>
</g>
<!-- 14 -->
<g id="node15" class="node">
<title>14</title>
<polygon fill="#e78945" stroke="#000000" points="733.5,-365 589.5,-365 589.5,-297 733.5,-297 733.5,-365"/>
<text text-anchor="middle" x="661.5" y="-349.8" font-family="Times,serif" font-size="14.00" fill="#000000">texture error &lt;= 0.473</text>
<text text-anchor="middle" x="661.5" y="-334.8" font-family="Times,serif" font-size="14.00" fill="#000000">samples = 142</text>
<text text-anchor="middle" x="661.5" y="-319.8" font-family="Times,serif" font-size="14.00" fill="#000000">value = [134, 8]</text>
<text text-anchor="middle" x="661.5" y="-304.8" font-family="Times,serif" font-size="14.00" fill="#000000">class = 악성</text>
</g>
<!-- 0&#45;&gt;14 -->
<g id="edge14" class="edge">
<title>0&#45;&gt;14</title>
<path fill="none" stroke="#000000" d="M602.3145,-400.9465C609.9117,-391.968 618.1974,-382.1758 626.0982,-372.8385"/>
<polygon fill="#000000" stroke="#000000" points="628.8332,-375.0247 632.6208,-365.13 623.4895,-370.5031 628.8332,-375.0247"/>
<text text-anchor="middle" x="634.6969" y="-386.3436" font-family="Times,serif" font-size="14.00" fill="#000000">False</text>
</g>
<!-- 2 -->
<g id="node3" class="node">
<title>2</title>
<polygon fill="#3c9fe5" stroke="#000000" points="362.5,-261 222.5,-261 222.5,-193 362.5,-193 362.5,-261"/>
<text text-anchor="middle" x="292.5" y="-245.8" font-family="Times,serif" font-size="14.00" fill="#000000">radius error &lt;= 1.048</text>
<text text-anchor="middle" x="292.5" y="-230.8" font-family="Times,serif" font-size="14.00" fill="#000000">samples = 252</text>
<text text-anchor="middle" x="292.5" y="-215.8" font-family="Times,serif" font-size="14.00" fill="#000000">value = [4, 248]</text>
<text text-anchor="middle" x="292.5" y="-200.8" font-family="Times,serif" font-size="14.00" fill="#000000">class = 양성</text>
</g>
<!-- 1&#45;&gt;2 -->
<g id="edge2" class="edge">
<title>1&#45;&gt;2</title>
<path fill="none" stroke="#000000" d="M410.1985,-296.9465C393.7306,-287.1599 375.6362,-276.4066 358.6793,-266.3294"/>
<polygon fill="#000000" stroke="#000000" points="360.3149,-263.23 349.9303,-261.13 356.7387,-269.2476 360.3149,-263.23"/>
</g>
<!-- 7 -->
<g id="node8" class="node">
<title>7</title>
<polygon fill="#f3c3a1" stroke="#000000" points="542,-261 393,-261 393,-193 542,-193 542,-261"/>
<text text-anchor="middle" x="467.5" y="-245.8" font-family="Times,serif" font-size="14.00" fill="#000000">worst texture &lt;= 25.62</text>
<text text-anchor="middle" x="467.5" y="-230.8" font-family="Times,serif" font-size="14.00" fill="#000000">samples = 32</text>
<text text-anchor="middle" x="467.5" y="-215.8" font-family="Times,serif" font-size="14.00" fill="#000000">value = [21, 11]</text>
<text text-anchor="middle" x="467.5" y="-200.8" font-family="Times,serif" font-size="14.00" fill="#000000">class = 악성</text>
</g>
<!-- 1&#45;&gt;7 -->
<g id="edge7" class="edge">
<title>1&#45;&gt;7</title>
<path fill="none" stroke="#000000" d="M467.5,-296.9465C467.5,-288.776 467.5,-279.9318 467.5,-271.3697"/>
<polygon fill="#000000" stroke="#000000" points="471.0001,-271.13 467.5,-261.13 464.0001,-271.13 471.0001,-271.13"/>
</g>
<!-- 3 -->
<g id="node4" class="node">
<title>3</title>
<polygon fill="#3b9ee5" stroke="#000000" points="226.5,-157 54.5,-157 54.5,-89 226.5,-89 226.5,-157"/>
<text text-anchor="middle" x="140.5" y="-141.8" font-family="Times,serif" font-size="14.00" fill="#000000">smoothness error &lt;= 0.003</text>
<text text-anchor="middle" x="140.5" y="-126.8" font-family="Times,serif" font-size="14.00" fill="#000000">samples = 251</text>
<text text-anchor="middle" x="140.5" y="-111.8" font-family="Times,serif" font-size="14.00" fill="#000000">value = [3, 248]</text>
<text text-anchor="middle" x="140.5" y="-96.8" font-family="Times,serif" font-size="14.00" fill="#000000">class = 양성</text>
</g>
<!-- 2&#45;&gt;3 -->
<g id="edge3" class="edge">
<title>2&#45;&gt;3</title>
<path fill="none" stroke="#000000" d="M242.7295,-192.9465C228.6885,-183.3395 213.286,-172.8009 198.7932,-162.8848"/>
<polygon fill="#000000" stroke="#000000" points="200.6118,-159.8883 190.3823,-157.13 196.659,-165.6655 200.6118,-159.8883"/>
</g>
<!-- 6 -->
<g id="node7" class="node">
<title>6</title>
<polygon fill="#e58139" stroke="#000000" points="340,-149.5 245,-149.5 245,-96.5 340,-96.5 340,-149.5"/>
<text text-anchor="middle" x="292.5" y="-134.3" font-family="Times,serif" font-size="14.00" fill="#000000">samples = 1</text>
<text text-anchor="middle" x="292.5" y="-119.3" font-family="Times,serif" font-size="14.00" fill="#000000">value = [1, 0]</text>
<text text-anchor="middle" x="292.5" y="-104.3" font-family="Times,serif" font-size="14.00" fill="#000000">class = 악성</text>
</g>
<!-- 2&#45;&gt;6 -->
<g id="edge6" class="edge">
<title>2&#45;&gt;6</title>
<path fill="none" stroke="#000000" d="M292.5,-192.9465C292.5,-182.2621 292.5,-170.4254 292.5,-159.5742"/>
<polygon fill="#000000" stroke="#000000" points="296.0001,-159.5421 292.5,-149.5422 289.0001,-159.5422 296.0001,-159.5421"/>
</g>
<!-- 4 -->
<g id="node5" class="node">
<title>4</title>
<polygon fill="#7bbeee" stroke="#000000" points="95,-53 0,-53 0,0 95,0 95,-53"/>
<text text-anchor="middle" x="47.5" y="-37.8" font-family="Times,serif" font-size="14.00" fill="#000000">samples = 4</text>
<text text-anchor="middle" x="47.5" y="-22.8" font-family="Times,serif" font-size="14.00" fill="#000000">value = [1, 3]</text>
<text text-anchor="middle" x="47.5" y="-7.8" font-family="Times,serif" font-size="14.00" fill="#000000">class = 양성</text>
</g>
<!-- 3&#45;&gt;4 -->
<g id="edge4" class="edge">
<title>3&#45;&gt;4</title>
<path fill="none" stroke="#000000" d="M107.7117,-88.9777C98.7986,-79.7292 89.1473,-69.7147 80.2371,-60.4691"/>
<polygon fill="#000000" stroke="#000000" points="82.7378,-58.0202 73.2783,-53.2485 77.6975,-62.8777 82.7378,-58.0202"/>
</g>
<!-- 5 -->
<g id="node6" class="node">
<title>5</title>
<polygon fill="#3b9ee5" stroke="#000000" points="223.5,-53 113.5,-53 113.5,0 223.5,0 223.5,-53"/>
<text text-anchor="middle" x="168.5" y="-37.8" font-family="Times,serif" font-size="14.00" fill="#000000">samples = 247</text>
<text text-anchor="middle" x="168.5" y="-22.8" font-family="Times,serif" font-size="14.00" fill="#000000">value = [2, 245]</text>
<text text-anchor="middle" x="168.5" y="-7.8" font-family="Times,serif" font-size="14.00" fill="#000000">class = 양성</text>
</g>
<!-- 3&#45;&gt;5 -->
<g id="edge5" class="edge">
<title>3&#45;&gt;5</title>
<path fill="none" stroke="#000000" d="M150.3718,-88.9777C152.8161,-80.5533 155.4449,-71.4934 157.9215,-62.9579"/>
<polygon fill="#000000" stroke="#000000" points="161.3135,-63.8277 160.7388,-53.2485 154.5907,-61.877 161.3135,-63.8277"/>
</g>
<!-- 8 -->
<g id="node9" class="node">
<title>8</title>
<polygon fill="#7bbeee" stroke="#000000" points="534.5,-157 358.5,-157 358.5,-89 534.5,-89 534.5,-157"/>
<text text-anchor="middle" x="446.5" y="-141.8" font-family="Times,serif" font-size="14.00" fill="#000000">worst smoothness &lt;= 0.179</text>
<text text-anchor="middle" x="446.5" y="-126.8" font-family="Times,serif" font-size="14.00" fill="#000000">samples = 12</text>
<text text-anchor="middle" x="446.5" y="-111.8" font-family="Times,serif" font-size="14.00" fill="#000000">value = [3, 9]</text>
<text text-anchor="middle" x="446.5" y="-96.8" font-family="Times,serif" font-size="14.00" fill="#000000">class = 양성</text>
</g>
<!-- 7&#45;&gt;8 -->
<g id="edge8" class="edge">
<title>7&#45;&gt;8</title>
<path fill="none" stroke="#000000" d="M460.6238,-192.9465C458.9559,-184.6863 457.1489,-175.7374 455.4023,-167.0875"/>
<polygon fill="#000000" stroke="#000000" points="458.8018,-166.2394 453.3916,-157.13 451.9402,-167.6249 458.8018,-166.2394"/>
</g>
<!-- 11 -->
<g id="node12" class="node">
<title>11</title>
<polygon fill="#e88f4f" stroke="#000000" points="719,-157 552,-157 552,-89 719,-89 719,-157"/>
<text text-anchor="middle" x="635.5" y="-141.8" font-family="Times,serif" font-size="14.00" fill="#000000">worst symmetry &lt;= 0.268</text>
<text text-anchor="middle" x="635.5" y="-126.8" font-family="Times,serif" font-size="14.00" fill="#000000">samples = 20</text>
<text text-anchor="middle" x="635.5" y="-111.8" font-family="Times,serif" font-size="14.00" fill="#000000">value = [18, 2]</text>
<text text-anchor="middle" x="635.5" y="-96.8" font-family="Times,serif" font-size="14.00" fill="#000000">class = 악성</text>
</g>
<!-- 7&#45;&gt;11 -->
<g id="edge11" class="edge">
<title>7&#45;&gt;11</title>
<path fill="none" stroke="#000000" d="M522.5095,-192.9465C538.1736,-183.2497 555.3707,-172.6039 571.5196,-162.6069"/>
<polygon fill="#000000" stroke="#000000" points="573.7065,-165.3695 580.3669,-157.13 570.022,-159.4177 573.7065,-165.3695"/>
</g>
<!-- 9 -->
<g id="node10" class="node">
<title>9</title>
<polygon fill="#4fa8e8" stroke="#000000" points="384,-53 289,-53 289,0 384,0 384,-53"/>
<text text-anchor="middle" x="336.5" y="-37.8" font-family="Times,serif" font-size="14.00" fill="#000000">samples = 10</text>
<text text-anchor="middle" x="336.5" y="-22.8" font-family="Times,serif" font-size="14.00" fill="#000000">value = [1, 9]</text>
<text text-anchor="middle" x="336.5" y="-7.8" font-family="Times,serif" font-size="14.00" fill="#000000">class = 양성</text>
</g>
<!-- 8&#45;&gt;9 -->
<g id="edge9" class="edge">
<title>8&#45;&gt;9</title>
<path fill="none" stroke="#000000" d="M407.7181,-88.9777C396.967,-79.546 385.3078,-69.3178 374.5962,-59.9208"/>
<polygon fill="#000000" stroke="#000000" points="376.816,-57.2122 366.9905,-53.2485 372.1996,-62.4743 376.816,-57.2122"/>
</g>
<!-- 10 -->
<g id="node11" class="node">
<title>10</title>
<polygon fill="#e58139" stroke="#000000" points="497,-53 402,-53 402,0 497,0 497,-53"/>
<text text-anchor="middle" x="449.5" y="-37.8" font-family="Times,serif" font-size="14.00" fill="#000000">samples = 2</text>
<text text-anchor="middle" x="449.5" y="-22.8" font-family="Times,serif" font-size="14.00" fill="#000000">value = [2, 0]</text>
<text text-anchor="middle" x="449.5" y="-7.8" font-family="Times,serif" font-size="14.00" fill="#000000">class = 악성</text>
</g>
<!-- 8&#45;&gt;10 -->
<g id="edge10" class="edge">
<title>8&#45;&gt;10</title>
<path fill="none" stroke="#000000" d="M447.5577,-88.9777C447.8139,-80.7364 448.089,-71.887 448.3493,-63.5153"/>
<polygon fill="#000000" stroke="#000000" points="451.8559,-63.3524 448.6684,-53.2485 444.8593,-63.1349 451.8559,-63.3524"/>
</g>
<!-- 12 -->
<g id="node13" class="node">
<title>12</title>
<polygon fill="#9ccef2" stroke="#000000" points="621,-53 526,-53 526,0 621,0 621,-53"/>
<text text-anchor="middle" x="573.5" y="-37.8" font-family="Times,serif" font-size="14.00" fill="#000000">samples = 3</text>
<text text-anchor="middle" x="573.5" y="-22.8" font-family="Times,serif" font-size="14.00" fill="#000000">value = [1, 2]</text>
<text text-anchor="middle" x="573.5" y="-7.8" font-family="Times,serif" font-size="14.00" fill="#000000">class = 양성</text>
</g>
<!-- 11&#45;&gt;12 -->
<g id="edge12" class="edge">
<title>11&#45;&gt;12</title>
<path fill="none" stroke="#000000" d="M613.6411,-88.9777C607.9932,-80.187 601.9007,-70.7044 596.2104,-61.8477"/>
<polygon fill="#000000" stroke="#000000" points="599.0356,-59.7698 590.6856,-53.2485 593.1463,-63.5536 599.0356,-59.7698"/>
</g>
<!-- 13 -->
<g id="node14" class="node">
<title>13</title>
<polygon fill="#e58139" stroke="#000000" points="741.5,-53 639.5,-53 639.5,0 741.5,0 741.5,-53"/>
<text text-anchor="middle" x="690.5" y="-37.8" font-family="Times,serif" font-size="14.00" fill="#000000">samples = 17</text>
<text text-anchor="middle" x="690.5" y="-22.8" font-family="Times,serif" font-size="14.00" fill="#000000">value = [17, 0]</text>
<text text-anchor="middle" x="690.5" y="-7.8" font-family="Times,serif" font-size="14.00" fill="#000000">class = 악성</text>
</g>
<!-- 11&#45;&gt;13 -->
<g id="edge13" class="edge">
<title>11&#45;&gt;13</title>
<path fill="none" stroke="#000000" d="M654.8909,-88.9777C659.849,-80.2786 665.1933,-70.9018 670.1958,-62.1247"/>
<polygon fill="#000000" stroke="#000000" points="673.3438,-63.6696 675.2548,-53.2485 667.2622,-60.2033 673.3438,-63.6696"/>
</g>
<!-- 15 -->
<g id="node16" class="node">
<title>15</title>
<polygon fill="#399de5" stroke="#000000" points="709,-253.5 614,-253.5 614,-200.5 709,-200.5 709,-253.5"/>
<text text-anchor="middle" x="661.5" y="-238.3" font-family="Times,serif" font-size="14.00" fill="#000000">samples = 5</text>
<text text-anchor="middle" x="661.5" y="-223.3" font-family="Times,serif" font-size="14.00" fill="#000000">value = [0, 5]</text>
<text text-anchor="middle" x="661.5" y="-208.3" font-family="Times,serif" font-size="14.00" fill="#000000">class = 양성</text>
</g>
<!-- 14&#45;&gt;15 -->
<g id="edge15" class="edge">
<title>14&#45;&gt;15</title>
<path fill="none" stroke="#000000" d="M661.5,-296.9465C661.5,-286.2621 661.5,-274.4254 661.5,-263.5742"/>
<polygon fill="#000000" stroke="#000000" points="665.0001,-263.5421 661.5,-253.5422 658.0001,-263.5422 665.0001,-263.5421"/>
</g>
<!-- 16 -->
<g id="node17" class="node">
<title>16</title>
<polygon fill="#e6843d" stroke="#000000" points="898,-261 733,-261 733,-193 898,-193 898,-261"/>
<text text-anchor="middle" x="815.5" y="-245.8" font-family="Times,serif" font-size="14.00" fill="#000000">worst concavity &lt;= 0.191</text>
<text text-anchor="middle" x="815.5" y="-230.8" font-family="Times,serif" font-size="14.00" fill="#000000">samples = 137</text>
<text text-anchor="middle" x="815.5" y="-215.8" font-family="Times,serif" font-size="14.00" fill="#000000">value = [134, 3]</text>
<text text-anchor="middle" x="815.5" y="-200.8" font-family="Times,serif" font-size="14.00" fill="#000000">class = 악성</text>
</g>
<!-- 14&#45;&gt;16 -->
<g id="edge16" class="edge">
<title>14&#45;&gt;16</title>
<path fill="none" stroke="#000000" d="M711.9254,-296.9465C726.1512,-287.3395 741.7563,-276.8009 756.4398,-266.8848"/>
<polygon fill="#000000" stroke="#000000" points="758.6329,-269.6272 764.9614,-261.13 754.7153,-263.8261 758.6329,-269.6272"/>
</g>
<!-- 17 -->
<g id="node18" class="node">
<title>17</title>
<polygon fill="#bddef6" stroke="#000000" points="893.5,-157 737.5,-157 737.5,-89 893.5,-89 893.5,-157"/>
<text text-anchor="middle" x="815.5" y="-141.8" font-family="Times,serif" font-size="14.00" fill="#000000">worst texture &lt;= 30.975</text>
<text text-anchor="middle" x="815.5" y="-126.8" font-family="Times,serif" font-size="14.00" fill="#000000">samples = 5</text>
<text text-anchor="middle" x="815.5" y="-111.8" font-family="Times,serif" font-size="14.00" fill="#000000">value = [2, 3]</text>
<text text-anchor="middle" x="815.5" y="-96.8" font-family="Times,serif" font-size="14.00" fill="#000000">class = 양성</text>
</g>
<!-- 16&#45;&gt;17 -->
<g id="edge17" class="edge">
<title>16&#45;&gt;17</title>
<path fill="none" stroke="#000000" d="M815.5,-192.9465C815.5,-184.776 815.5,-175.9318 815.5,-167.3697"/>
<polygon fill="#000000" stroke="#000000" points="819.0001,-167.13 815.5,-157.13 812.0001,-167.13 819.0001,-167.13"/>
</g>
<!-- 20 -->
<g id="node21" class="node">
<title>20</title>
<polygon fill="#e58139" stroke="#000000" points="1021.5,-149.5 911.5,-149.5 911.5,-96.5 1021.5,-96.5 1021.5,-149.5"/>
<text text-anchor="middle" x="966.5" y="-134.3" font-family="Times,serif" font-size="14.00" fill="#000000">samples = 132</text>
<text text-anchor="middle" x="966.5" y="-119.3" font-family="Times,serif" font-size="14.00" fill="#000000">value = [132, 0]</text>
<text text-anchor="middle" x="966.5" y="-104.3" font-family="Times,serif" font-size="14.00" fill="#000000">class = 악성</text>
</g>
<!-- 16&#45;&gt;20 -->
<g id="edge20" class="edge">
<title>16&#45;&gt;20</title>
<path fill="none" stroke="#000000" d="M864.943,-192.9465C882.5351,-180.8301 902.2785,-167.232 919.647,-155.2696"/>
<polygon fill="#000000" stroke="#000000" points="921.7125,-158.0969 927.9628,-149.5422 917.7419,-152.332 921.7125,-158.0969"/>
</g>
<!-- 18 -->
<g id="node19" class="node">
<title>18</title>
<polygon fill="#399de5" stroke="#000000" points="860,-53 765,-53 765,0 860,0 860,-53"/>
<text text-anchor="middle" x="812.5" y="-37.8" font-family="Times,serif" font-size="14.00" fill="#000000">samples = 3</text>
<text text-anchor="middle" x="812.5" y="-22.8" font-family="Times,serif" font-size="14.00" fill="#000000">value = [0, 3]</text>
<text text-anchor="middle" x="812.5" y="-7.8" font-family="Times,serif" font-size="14.00" fill="#000000">class = 양성</text>
</g>
<!-- 17&#45;&gt;18 -->
<g id="edge18" class="edge">
<title>17&#45;&gt;18</title>
<path fill="none" stroke="#000000" d="M814.4423,-88.9777C814.1861,-80.7364 813.911,-71.887 813.6507,-63.5153"/>
<polygon fill="#000000" stroke="#000000" points="817.1407,-63.1349 813.3316,-53.2485 810.1441,-63.3524 817.1407,-63.1349"/>
</g>
<!-- 19 -->
<g id="node20" class="node">
<title>19</title>
<polygon fill="#e58139" stroke="#000000" points="973,-53 878,-53 878,0 973,0 973,-53"/>
<text text-anchor="middle" x="925.5" y="-37.8" font-family="Times,serif" font-size="14.00" fill="#000000">samples = 2</text>
<text text-anchor="middle" x="925.5" y="-22.8" font-family="Times,serif" font-size="14.00" fill="#000000">value = [2, 0]</text>
<text text-anchor="middle" x="925.5" y="-7.8" font-family="Times,serif" font-size="14.00" fill="#000000">class = 악성</text>
</g>
<!-- 17&#45;&gt;19 -->
<g id="edge19" class="edge">
<title>17&#45;&gt;19</title>
<path fill="none" stroke="#000000" d="M854.2819,-88.9777C865.033,-79.546 876.6922,-69.3178 887.4038,-59.9208"/>
<polygon fill="#000000" stroke="#000000" points="889.8004,-62.4743 895.0095,-53.2485 885.184,-57.2122 889.8004,-62.4743"/>
</g>
</g>
</svg>
