<?xml version="1.0" encoding="UTF-8" standalone="no"?>
<!DOCTYPE svg PUBLIC "-//W3C//DTD SVG 1.1//EN"
 "http://www.w3.org/Graphics/SVG/1.1/DTD/svg11.dtd">
<!-- Generated by graphviz version 2.40.1 (20161225.0304)
 -->
<!-- Title: Tree Pages: 1 -->
<svg width="1052pt" height="477pt"
 viewBox="0.00 0.00 1052.00 477.00" xmlns="http://www.w3.org/2000/svg" xmlns:xlink="http://www.w3.org/1999/xlink">
<g id="graph0" class="graph" transform="scale(1 1) rotate(0) translate(4 473)">
<title>Tree</title>
<polygon fill="#ffffff" stroke="transparent" points="-4,4 -4,-473 1048,-473 1048,4 -4,4"/>
<!-- 0 -->
<g id="node1" class="node">
<title>0</title>
<polygon fill="#afd7f4" stroke="#000000" points="654,-469 502,-469 502,-401 654,-401 654,-469"/>
<text text-anchor="middle" x="578" y="-453.8" font-family="Times,serif" font-size="14.00" fill="#000000">worst radius &lt;= 16.795</text>
<text text-anchor="middle" x="578" y="-438.8" font-family="Times,serif" font-size="14.00" fill="#000000">samples = 426</text>
<text text-anchor="middle" x="578" y="-423.8" font-family="Times,serif" font-size="14.00" fill="#000000">value = [159, 267]</text>
<text text-anchor="middle" x="578" y="-408.8" font-family="Times,serif" font-size="14.00" fill="#000000">class = benign</text>
</g>
<!-- 1 -->
<g id="node2" class="node">
<title>1</title>
<polygon fill="#4ca6e8" stroke="#000000" points="563.5,-365 368.5,-365 368.5,-297 563.5,-297 563.5,-365"/>
<text text-anchor="middle" x="466" y="-349.8" font-family="Times,serif" font-size="14.00" fill="#000000">worst concave points &lt;= 0.136</text>
<text text-anchor="middle" x="466" y="-334.8" font-family="Times,serif" font-size="14.00" fill="#000000">samples = 284</text>
<text text-anchor="middle" x="466" y="-319.8" font-family="Times,serif" font-size="14.00" fill="#000000">value = [25, 259]</text>
<text text-anchor="middle" x="466" y="-304.8" font-family="Times,serif" font-size="14.00" fill="#000000">class = benign</text>
</g>
<!-- 0&#45;&gt;1 -->
<g id="edge1" class="edge">
<title>0&#45;&gt;1</title>
<path fill="none" stroke="#000000" d="M541.327,-400.9465C531.3677,-391.6986 520.4789,-381.5876 510.1532,-371.9994"/>
<polygon fill="#000000" stroke="#000000" points="512.4649,-369.3698 502.7554,-365.13 507.7018,-374.4993 512.4649,-369.3698"/>
<text text-anchor="middle" x="503.6807" y="-386.4129" font-family="Times,serif" font-size="14.00" fill="#000000">True</text>
</g>
<!-- 14 -->
<g id="node15" class="node">
<title>14</title>
<polygon fill="#e78945" stroke="#000000" points="736,-365 592,-365 592,-297 736,-297 736,-365"/>
<text text-anchor="middle" x="664" y="-349.8" font-family="Times,serif" font-size="14.00" fill="#000000">texture error &lt;= 0.473</text>
<text text-anchor="middle" x="664" y="-334.8" font-family="Times,serif" font-size="14.00" fill="#000000">samples = 142</text>
<text text-anchor="middle" x="664" y="-319.8" font-family="Times,serif" font-size="14.00" fill="#000000">value = [134, 8]</text>
<text text-anchor="middle" x="664" y="-304.8" font-family="Times,serif" font-size="14.00" fill="#000000">class = malignant</text>
</g>
<!-- 0&#45;&gt;14 -->
<g id="edge14" class="edge">
<title>0&#45;&gt;14</title>
<path fill="none" stroke="#000000" d="M606.1596,-400.9465C613.5842,-391.968 621.6815,-382.1758 629.4028,-372.8385"/>
<polygon fill="#000000" stroke="#000000" points="632.1017,-375.0669 635.7771,-365.13 626.7072,-370.606 632.1017,-375.0669"/>
<text text-anchor="middle" x="638.135" y="-386.3186" font-family="Times,serif" font-size="14.00" fill="#000000">False</text>
</g>
<!-- 2 -->
<g id="node3" class="node">
<title>2</title>
<polygon fill="#3c9fe5" stroke="#000000" points="363,-261 223,-261 223,-193 363,-193 363,-261"/>
<text text-anchor="middle" x="293" y="-245.8" font-family="Times,serif" font-size="14.00" fill="#000000">radius error &lt;= 1.048</text>
<text text-anchor="middle" x="293" y="-230.8" font-family="Times,serif" font-size="14.00" fill="#000000">samples = 252</text>
<text text-anchor="middle" x="293" y="-215.8" font-family="Times,serif" font-size="14.00" fill="#000000">value = [4, 248]</text>
<text text-anchor="middle" x="293" y="-200.8" font-family="Times,serif" font-size="14.00" fill="#000000">class = benign</text>
</g>
<!-- 1&#45;&gt;2 -->
<g id="edge2" class="edge">
<title>1&#45;&gt;2</title>
<path fill="none" stroke="#000000" d="M409.3533,-296.9465C393.0737,-287.1599 375.186,-276.4066 358.423,-266.3294"/>
<polygon fill="#000000" stroke="#000000" points="360.1478,-263.2826 349.7739,-261.13 356.5412,-269.282 360.1478,-263.2826"/>
</g>
<!-- 7 -->
<g id="node8" class="node">
<title>7</title>
<polygon fill="#f3c3a1" stroke="#000000" points="540.5,-261 391.5,-261 391.5,-193 540.5,-193 540.5,-261"/>
<text text-anchor="middle" x="466" y="-245.8" font-family="Times,serif" font-size="14.00" fill="#000000">worst texture &lt;= 25.62</text>
<text text-anchor="middle" x="466" y="-230.8" font-family="Times,serif" font-size="14.00" fill="#000000">samples = 32</text>
<text text-anchor="middle" x="466" y="-215.8" font-family="Times,serif" font-size="14.00" fill="#000000">value = [21, 11]</text>
<text text-anchor="middle" x="466" y="-200.8" font-family="Times,serif" font-size="14.00" fill="#000000">class = malignant</text>
</g>
<!-- 1&#45;&gt;7 -->
<g id="edge7" class="edge">
<title>1&#45;&gt;7</title>
<path fill="none" stroke="#000000" d="M466,-296.9465C466,-288.776 466,-279.9318 466,-271.3697"/>
<polygon fill="#000000" stroke="#000000" points="469.5001,-271.13 466,-261.13 462.5001,-271.13 469.5001,-271.13"/>
</g>
<!-- 3 -->
<g id="node4" class="node">
<title>3</title>
<polygon fill="#3b9ee5" stroke="#000000" points="217,-157 45,-157 45,-89 217,-89 217,-157"/>
<text text-anchor="middle" x="131" y="-141.8" font-family="Times,serif" font-size="14.00" fill="#000000">smoothness error &lt;= 0.003</text>
<text text-anchor="middle" x="131" y="-126.8" font-family="Times,serif" font-size="14.00" fill="#000000">samples = 251</text>
<text text-anchor="middle" x="131" y="-111.8" font-family="Times,serif" font-size="14.00" fill="#000000">value = [3, 248]</text>
<text text-anchor="middle" x="131" y="-96.8" font-family="Times,serif" font-size="14.00" fill="#000000">class = benign</text>
</g>
<!-- 2&#45;&gt;3 -->
<g id="edge3" class="edge">
<title>2&#45;&gt;3</title>
<path fill="none" stroke="#000000" d="M239.9551,-192.9465C224.8505,-183.2497 208.2676,-172.6039 192.6954,-162.6069"/>
<polygon fill="#000000" stroke="#000000" points="194.47,-159.5871 184.164,-157.13 190.6884,-165.4777 194.47,-159.5871"/>
</g>
<!-- 6 -->
<g id="node7" class="node">
<title>6</title>
<polygon fill="#e58139" stroke="#000000" points="351,-149.5 235,-149.5 235,-96.5 351,-96.5 351,-149.5"/>
<text text-anchor="middle" x="293" y="-134.3" font-family="Times,serif" font-size="14.00" fill="#000000">samples = 1</text>
<text text-anchor="middle" x="293" y="-119.3" font-family="Times,serif" font-size="14.00" fill="#000000">value = [1, 0]</text>
<text text-anchor="middle" x="293" y="-104.3" font-family="Times,serif" font-size="14.00" fill="#000000">class = malignant</text>
</g>
<!-- 2&#45;&gt;6 -->
<g id="edge6" class="edge">
<title>2&#45;&gt;6</title>
<path fill="none" stroke="#000000" d="M293,-192.9465C293,-182.2621 293,-170.4254 293,-159.5742"/>
<polygon fill="#000000" stroke="#000000" points="296.5001,-159.5421 293,-149.5422 289.5001,-159.5422 296.5001,-159.5421"/>
</g>
<!-- 4 -->
<g id="node5" class="node">
<title>4</title>
<polygon fill="#7bbeee" stroke="#000000" points="98,-53 0,-53 0,0 98,0 98,-53"/>
<text text-anchor="middle" x="49" y="-37.8" font-family="Times,serif" font-size="14.00" fill="#000000">samples = 4</text>
<text text-anchor="middle" x="49" y="-22.8" font-family="Times,serif" font-size="14.00" fill="#000000">value = [1, 3]</text>
<text text-anchor="middle" x="49" y="-7.8" font-family="Times,serif" font-size="14.00" fill="#000000">class = benign</text>
</g>
<!-- 3&#45;&gt;4 -->
<g id="edge4" class="edge">
<title>3&#45;&gt;4</title>
<path fill="none" stroke="#000000" d="M102.0899,-88.9777C94.3866,-79.9123 86.0581,-70.111 78.3324,-61.0192"/>
<polygon fill="#000000" stroke="#000000" points="80.8718,-58.6025 71.7293,-53.2485 75.5375,-63.1352 80.8718,-58.6025"/>
</g>
<!-- 5 -->
<g id="node6" class="node">
<title>5</title>
<polygon fill="#3b9ee5" stroke="#000000" points="226,-53 116,-53 116,0 226,0 226,-53"/>
<text text-anchor="middle" x="171" y="-37.8" font-family="Times,serif" font-size="14.00" fill="#000000">samples = 247</text>
<text text-anchor="middle" x="171" y="-22.8" font-family="Times,serif" font-size="14.00" fill="#000000">value = [2, 245]</text>
<text text-anchor="middle" x="171" y="-7.8" font-family="Times,serif" font-size="14.00" fill="#000000">class = benign</text>
</g>
<!-- 3&#45;&gt;5 -->
<g id="edge5" class="edge">
<title>3&#45;&gt;5</title>
<path fill="none" stroke="#000000" d="M145.1025,-88.9777C148.6324,-80.4617 152.4316,-71.2963 156.0032,-62.6798"/>
<polygon fill="#000000" stroke="#000000" points="159.3166,-63.8265 159.9125,-53.2485 152.8501,-61.1461 159.3166,-63.8265"/>
</g>
<!-- 8 -->
<g id="node9" class="node">
<title>8</title>
<polygon fill="#7bbeee" stroke="#000000" points="545,-157 369,-157 369,-89 545,-89 545,-157"/>
<text text-anchor="middle" x="457" y="-141.8" font-family="Times,serif" font-size="14.00" fill="#000000">worst smoothness &lt;= 0.179</text>
<text text-anchor="middle" x="457" y="-126.8" font-family="Times,serif" font-size="14.00" fill="#000000">samples = 12</text>
<text text-anchor="middle" x="457" y="-111.8" font-family="Times,serif" font-size="14.00" fill="#000000">value = [3, 9]</text>
<text text-anchor="middle" x="457" y="-96.8" font-family="Times,serif" font-size="14.00" fill="#000000">class = benign</text>
</g>
<!-- 7&#45;&gt;8 -->
<g id="edge8" class="edge">
<title>7&#45;&gt;8</title>
<path fill="none" stroke="#000000" d="M463.0531,-192.9465C462.346,-184.776 461.5806,-175.9318 460.8397,-167.3697"/>
<polygon fill="#000000" stroke="#000000" points="464.3028,-166.791 459.9536,-157.13 457.3288,-167.3945 464.3028,-166.791"/>
</g>
<!-- 11 -->
<g id="node12" class="node">
<title>11</title>
<polygon fill="#e88f4f" stroke="#000000" points="729.5,-157 562.5,-157 562.5,-89 729.5,-89 729.5,-157"/>
<text text-anchor="middle" x="646" y="-141.8" font-family="Times,serif" font-size="14.00" fill="#000000">worst symmetry &lt;= 0.268</text>
<text text-anchor="middle" x="646" y="-126.8" font-family="Times,serif" font-size="14.00" fill="#000000">samples = 20</text>
<text text-anchor="middle" x="646" y="-111.8" font-family="Times,serif" font-size="14.00" fill="#000000">value = [18, 2]</text>
<text text-anchor="middle" x="646" y="-96.8" font-family="Times,serif" font-size="14.00" fill="#000000">class = malignant</text>
</g>
<!-- 7&#45;&gt;11 -->
<g id="edge11" class="edge">
<title>7&#45;&gt;11</title>
<path fill="none" stroke="#000000" d="M524.9387,-192.9465C541.8771,-183.1599 560.4885,-172.4066 577.9299,-162.3294"/>
<polygon fill="#000000" stroke="#000000" points="580.0212,-165.1634 586.9289,-157.13 576.5192,-159.1023 580.0212,-165.1634"/>
</g>
<!-- 9 -->
<g id="node10" class="node">
<title>9</title>
<polygon fill="#4fa8e8" stroke="#000000" points="381,-53 283,-53 283,0 381,0 381,-53"/>
<text text-anchor="middle" x="332" y="-37.8" font-family="Times,serif" font-size="14.00" fill="#000000">samples = 10</text>
<text text-anchor="middle" x="332" y="-22.8" font-family="Times,serif" font-size="14.00" fill="#000000">value = [1, 9]</text>
<text text-anchor="middle" x="332" y="-7.8" font-family="Times,serif" font-size="14.00" fill="#000000">class = benign</text>
</g>
<!-- 8&#45;&gt;9 -->
<g id="edge9" class="edge">
<title>8&#45;&gt;9</title>
<path fill="none" stroke="#000000" d="M412.9297,-88.9777C400.4752,-79.3629 386.9485,-68.9203 374.5833,-59.3743"/>
<polygon fill="#000000" stroke="#000000" points="376.7028,-56.5889 366.6483,-53.2485 372.4251,-62.1299 376.7028,-56.5889"/>
</g>
<!-- 10 -->
<g id="node11" class="node">
<title>10</title>
<polygon fill="#e58139" stroke="#000000" points="515,-53 399,-53 399,0 515,0 515,-53"/>
<text text-anchor="middle" x="457" y="-37.8" font-family="Times,serif" font-size="14.00" fill="#000000">samples = 2</text>
<text text-anchor="middle" x="457" y="-22.8" font-family="Times,serif" font-size="14.00" fill="#000000">value = [2, 0]</text>
<text text-anchor="middle" x="457" y="-7.8" font-family="Times,serif" font-size="14.00" fill="#000000">class = malignant</text>
</g>
<!-- 8&#45;&gt;10 -->
<g id="edge10" class="edge">
<title>8&#45;&gt;10</title>
<path fill="none" stroke="#000000" d="M457,-88.9777C457,-80.7364 457,-71.887 457,-63.5153"/>
<polygon fill="#000000" stroke="#000000" points="460.5001,-63.2484 457,-53.2485 453.5001,-63.2485 460.5001,-63.2484"/>
</g>
<!-- 12 -->
<g id="node13" class="node">
<title>12</title>
<polygon fill="#9ccef2" stroke="#000000" points="631,-53 533,-53 533,0 631,0 631,-53"/>
<text text-anchor="middle" x="582" y="-37.8" font-family="Times,serif" font-size="14.00" fill="#000000">samples = 3</text>
<text text-anchor="middle" x="582" y="-22.8" font-family="Times,serif" font-size="14.00" fill="#000000">value = [1, 2]</text>
<text text-anchor="middle" x="582" y="-7.8" font-family="Times,serif" font-size="14.00" fill="#000000">class = benign</text>
</g>
<!-- 11&#45;&gt;12 -->
<g id="edge12" class="edge">
<title>11&#45;&gt;12</title>
<path fill="none" stroke="#000000" d="M623.436,-88.9777C617.6059,-80.187 611.3169,-70.7044 605.443,-61.8477"/>
<polygon fill="#000000" stroke="#000000" points="608.1838,-59.6478 599.7399,-53.2485 602.3502,-63.5167 608.1838,-59.6478"/>
</g>
<!-- 13 -->
<g id="node14" class="node">
<title>13</title>
<polygon fill="#e58139" stroke="#000000" points="765,-53 649,-53 649,0 765,0 765,-53"/>
<text text-anchor="middle" x="707" y="-37.8" font-family="Times,serif" font-size="14.00" fill="#000000">samples = 17</text>
<text text-anchor="middle" x="707" y="-22.8" font-family="Times,serif" font-size="14.00" fill="#000000">value = [17, 0]</text>
<text text-anchor="middle" x="707" y="-7.8" font-family="Times,serif" font-size="14.00" fill="#000000">class = malignant</text>
</g>
<!-- 11&#45;&gt;13 -->
<g id="edge13" class="edge">
<title>11&#45;&gt;13</title>
<path fill="none" stroke="#000000" d="M667.5063,-88.9777C673.0631,-80.187 679.0573,-70.7044 684.6559,-61.8477"/>
<polygon fill="#000000" stroke="#000000" points="687.7069,-63.5714 690.0916,-53.2485 681.7899,-59.8312 687.7069,-63.5714"/>
</g>
<!-- 15 -->
<g id="node16" class="node">
<title>15</title>
<polygon fill="#399de5" stroke="#000000" points="713,-253.5 615,-253.5 615,-200.5 713,-200.5 713,-253.5"/>
<text text-anchor="middle" x="664" y="-238.3" font-family="Times,serif" font-size="14.00" fill="#000000">samples = 5</text>
<text text-anchor="middle" x="664" y="-223.3" font-family="Times,serif" font-size="14.00" fill="#000000">value = [0, 5]</text>
<text text-anchor="middle" x="664" y="-208.3" font-family="Times,serif" font-size="14.00" fill="#000000">class = benign</text>
</g>
<!-- 14&#45;&gt;15 -->
<g id="edge15" class="edge">
<title>14&#45;&gt;15</title>
<path fill="none" stroke="#000000" d="M664,-296.9465C664,-286.2621 664,-274.4254 664,-263.5742"/>
<polygon fill="#000000" stroke="#000000" points="667.5001,-263.5421 664,-253.5422 660.5001,-263.5422 667.5001,-263.5421"/>
</g>
<!-- 16 -->
<g id="node17" class="node">
<title>16</title>
<polygon fill="#e6843d" stroke="#000000" points="914.5,-261 749.5,-261 749.5,-193 914.5,-193 914.5,-261"/>
<text text-anchor="middle" x="832" y="-245.8" font-family="Times,serif" font-size="14.00" fill="#000000">worst concavity &lt;= 0.191</text>
<text text-anchor="middle" x="832" y="-230.8" font-family="Times,serif" font-size="14.00" fill="#000000">samples = 137</text>
<text text-anchor="middle" x="832" y="-215.8" font-family="Times,serif" font-size="14.00" fill="#000000">value = [134, 3]</text>
<text text-anchor="middle" x="832" y="-200.8" font-family="Times,serif" font-size="14.00" fill="#000000">class = malignant</text>
</g>
<!-- 14&#45;&gt;16 -->
<g id="edge16" class="edge">
<title>14&#45;&gt;16</title>
<path fill="none" stroke="#000000" d="M719.0095,-296.9465C734.6736,-287.2497 751.8707,-276.6039 768.0196,-266.6069"/>
<polygon fill="#000000" stroke="#000000" points="770.2065,-269.3695 776.8669,-261.13 766.522,-263.4177 770.2065,-269.3695"/>
</g>
<!-- 17 -->
<g id="node18" class="node">
<title>17</title>
<polygon fill="#bddef6" stroke="#000000" points="910,-157 754,-157 754,-89 910,-89 910,-157"/>
<text text-anchor="middle" x="832" y="-141.8" font-family="Times,serif" font-size="14.00" fill="#000000">worst texture &lt;= 30.975</text>
<text text-anchor="middle" x="832" y="-126.8" font-family="Times,serif" font-size="14.00" fill="#000000">samples = 5</text>
<text text-anchor="middle" x="832" y="-111.8" font-family="Times,serif" font-size="14.00" fill="#000000">value = [2, 3]</text>
<text text-anchor="middle" x="832" y="-96.8" font-family="Times,serif" font-size="14.00" fill="#000000">class = benign</text>
</g>
<!-- 16&#45;&gt;17 -->
<g id="edge17" class="edge">
<title>16&#45;&gt;17</title>
<path fill="none" stroke="#000000" d="M832,-192.9465C832,-184.776 832,-175.9318 832,-167.3697"/>
<polygon fill="#000000" stroke="#000000" points="835.5001,-167.13 832,-157.13 828.5001,-167.13 835.5001,-167.13"/>
</g>
<!-- 20 -->
<g id="node21" class="node">
<title>20</title>
<polygon fill="#e58139" stroke="#000000" points="1044,-149.5 928,-149.5 928,-96.5 1044,-96.5 1044,-149.5"/>
<text text-anchor="middle" x="986" y="-134.3" font-family="Times,serif" font-size="14.00" fill="#000000">samples = 132</text>
<text text-anchor="middle" x="986" y="-119.3" font-family="Times,serif" font-size="14.00" fill="#000000">value = [132, 0]</text>
<text text-anchor="middle" x="986" y="-104.3" font-family="Times,serif" font-size="14.00" fill="#000000">class = malignant</text>
</g>
<!-- 16&#45;&gt;20 -->
<g id="edge20" class="edge">
<title>16&#45;&gt;20</title>
<path fill="none" stroke="#000000" d="M882.4254,-192.9465C900.3669,-180.8301 920.5026,-167.232 938.2162,-155.2696"/>
<polygon fill="#000000" stroke="#000000" points="940.3687,-158.0393 946.6972,-149.5422 936.4511,-152.2382 940.3687,-158.0393"/>
</g>
<!-- 18 -->
<g id="node19" class="node">
<title>18</title>
<polygon fill="#399de5" stroke="#000000" points="881,-53 783,-53 783,0 881,0 881,-53"/>
<text text-anchor="middle" x="832" y="-37.8" font-family="Times,serif" font-size="14.00" fill="#000000">samples = 3</text>
<text text-anchor="middle" x="832" y="-22.8" font-family="Times,serif" font-size="14.00" fill="#000000">value = [0, 3]</text>
<text text-anchor="middle" x="832" y="-7.8" font-family="Times,serif" font-size="14.00" fill="#000000">class = benign</text>
</g>
<!-- 17&#45;&gt;18 -->
<g id="edge18" class="edge">
<title>17&#45;&gt;18</title>
<path fill="none" stroke="#000000" d="M832,-88.9777C832,-80.7364 832,-71.887 832,-63.5153"/>
<polygon fill="#000000" stroke="#000000" points="835.5001,-63.2484 832,-53.2485 828.5001,-63.2485 835.5001,-63.2484"/>
</g>
<!-- 19 -->
<g id="node20" class="node">
<title>19</title>
<polygon fill="#e58139" stroke="#000000" points="1015,-53 899,-53 899,0 1015,0 1015,-53"/>
<text text-anchor="middle" x="957" y="-37.8" font-family="Times,serif" font-size="14.00" fill="#000000">samples = 2</text>
<text text-anchor="middle" x="957" y="-22.8" font-family="Times,serif" font-size="14.00" fill="#000000">value = [2, 0]</text>
<text text-anchor="middle" x="957" y="-7.8" font-family="Times,serif" font-size="14.00" fill="#000000">class = malignant</text>
</g>
<!-- 17&#45;&gt;19 -->
<g id="edge19" class="edge">
<title>17&#45;&gt;19</title>
<path fill="none" stroke="#000000" d="M876.0703,-88.9777C888.5248,-79.3629 902.0515,-68.9203 914.4167,-59.3743"/>
<polygon fill="#000000" stroke="#000000" points="916.5749,-62.1299 922.3517,-53.2485 912.2972,-56.5889 916.5749,-62.1299"/>
</g>
</g>
</svg>
