<?xml version="1.0" encoding="UTF-8" standalone="no"?>
<!DOCTYPE svg PUBLIC "-//W3C//DTD SVG 1.1//EN"
 "http://www.w3.org/Graphics/SVG/1.1/DTD/svg11.dtd">
<!-- Generated by graphviz version 2.40.1 (20161225.0304)
 -->
<!-- Title: %3 Pages: 1 -->
<svg width="387pt" height="261pt"
 viewBox="0.00 0.00 387.00 261.00" xmlns="http://www.w3.org/2000/svg" xmlns:xlink="http://www.w3.org/1999/xlink">
<g id="graph0" class="graph" transform="scale(1 1) rotate(0) translate(4 257)">
<title>%3</title>
<polygon fill="#ffffff" stroke="transparent" points="-4,4 -4,-257 383,-257 383,4 -4,4"/>
<g id="clust1" class="cluster">
<title>cluster_0</title>
<polygon fill="none" stroke="#ffffff" points="8,-8 8,-245 60,-245 60,-8 8,-8"/>
<text text-anchor="middle" x="34" y="-229.8" font-family="Times,serif" font-size="14.00" fill="#000000">inputs</text>
</g>
<g id="clust2" class="cluster">
<title>cluster_1</title>
<polygon fill="none" stroke="#ffffff" points="80,-35 80,-218 179,-218 179,-35 80,-35"/>
<text text-anchor="middle" x="129.5" y="-202.8" font-family="Times,serif" font-size="14.00" fill="#000000">hidden layer 1</text>
</g>
<g id="clust3" class="cluster">
<title>cluster_2</title>
<polygon fill="none" stroke="#ffffff" points="199,-35 199,-218 298,-218 298,-35 199,-35"/>
<text text-anchor="middle" x="248.5" y="-202.8" font-family="Times,serif" font-size="14.00" fill="#000000">hidden layer 2</text>
</g>
<g id="clust4" class="cluster">
<title>cluster_3</title>
<polygon fill="none" stroke="#ffffff" points="318,-89 318,-164 372,-164 372,-89 318,-89"/>
<text text-anchor="middle" x="345" y="-148.8" font-family="Times,serif" font-size="14.00" fill="#000000">output</text>
</g>
<!-- x[0] -->
<g id="node1" class="node">
<title>x[0]</title>
<ellipse fill="none" stroke="#000000" cx="34" cy="-196" rx="18" ry="18"/>
<text text-anchor="middle" x="34" y="-192.3" font-family="Times,serif" font-size="14.00" fill="#000000">x[0]</text>
</g>
<!-- h1[0] -->
<g id="node5" class="node">
<title>h1[0]</title>
<ellipse fill="none" stroke="#000000" cx="129" cy="-61" rx="18" ry="18"/>
<text text-anchor="middle" x="129" y="-57.3" font-family="Times,serif" font-size="14.00" fill="#000000">h1[0]</text>
</g>
<!-- x[0]&#45;&gt;h1[0] -->
<g id="edge1" class="edge">
<title>x[0]&#45;&gt;h1[0]</title>
<path fill="none" stroke="#000000" d="M44.5296,-181.0368C61.0073,-157.6212 93.0186,-112.1314 112.5543,-84.3702"/>
<polygon fill="#000000" stroke="#000000" points="115.5306,-86.2225 118.4232,-76.0302 109.8059,-82.194 115.5306,-86.2225"/>
</g>
<!-- h1[1] -->
<g id="node6" class="node">
<title>h1[1]</title>
<ellipse fill="none" stroke="#000000" cx="129" cy="-169" rx="18" ry="18"/>
<text text-anchor="middle" x="129" y="-165.3" font-family="Times,serif" font-size="14.00" fill="#000000">h1[1]</text>
</g>
<!-- x[0]&#45;&gt;h1[1] -->
<g id="edge2" class="edge">
<title>x[0]&#45;&gt;h1[1]</title>
<path fill="none" stroke="#000000" d="M51.4245,-191.0478C65.3976,-187.0765 85.2695,-181.4287 101.4023,-176.8436"/>
<polygon fill="#000000" stroke="#000000" points="102.7021,-180.1128 111.3643,-174.0123 100.7884,-173.3795 102.7021,-180.1128"/>
</g>
<!-- h1[2] -->
<g id="node7" class="node">
<title>h1[2]</title>
<ellipse fill="none" stroke="#000000" cx="129" cy="-115" rx="18" ry="18"/>
<text text-anchor="middle" x="129" y="-111.3" font-family="Times,serif" font-size="14.00" fill="#000000">h1[2]</text>
</g>
<!-- x[0]&#45;&gt;h1[2] -->
<g id="edge3" class="edge">
<title>x[0]&#45;&gt;h1[2]</title>
<path fill="none" stroke="#000000" d="M48.0176,-184.0482C63.6829,-170.6914 89.2339,-148.9059 107.4449,-133.3785"/>
<polygon fill="#000000" stroke="#000000" points="109.8951,-135.889 115.2338,-126.7375 105.3534,-130.5623 109.8951,-135.889"/>
</g>
<!-- x[1] -->
<g id="node2" class="node">
<title>x[1]</title>
<ellipse fill="none" stroke="#000000" cx="34" cy="-142" rx="18" ry="18"/>
<text text-anchor="middle" x="34" y="-138.3" font-family="Times,serif" font-size="14.00" fill="#000000">x[1]</text>
</g>
<!-- x[1]&#45;&gt;h1[0] -->
<g id="edge4" class="edge">
<title>x[1]&#45;&gt;h1[0]</title>
<path fill="none" stroke="#000000" d="M48.0176,-130.0482C63.6829,-116.6914 89.2339,-94.9059 107.4449,-79.3785"/>
<polygon fill="#000000" stroke="#000000" points="109.8951,-81.889 115.2338,-72.7375 105.3534,-76.5623 109.8951,-81.889"/>
</g>
<!-- x[1]&#45;&gt;h1[1] -->
<g id="edge5" class="edge">
<title>x[1]&#45;&gt;h1[1]</title>
<path fill="none" stroke="#000000" d="M51.4245,-146.9522C65.3976,-150.9235 85.2695,-156.5713 101.4023,-161.1564"/>
<polygon fill="#000000" stroke="#000000" points="100.7884,-164.6205 111.3643,-163.9877 102.7021,-157.8872 100.7884,-164.6205"/>
</g>
<!-- x[1]&#45;&gt;h1[2] -->
<g id="edge6" class="edge">
<title>x[1]&#45;&gt;h1[2]</title>
<path fill="none" stroke="#000000" d="M51.4245,-137.0478C65.3976,-133.0765 85.2695,-127.4287 101.4023,-122.8436"/>
<polygon fill="#000000" stroke="#000000" points="102.7021,-126.1128 111.3643,-120.0123 100.7884,-119.3795 102.7021,-126.1128"/>
</g>
<!-- x[2] -->
<g id="node3" class="node">
<title>x[2]</title>
<ellipse fill="none" stroke="#000000" cx="34" cy="-88" rx="18" ry="18"/>
<text text-anchor="middle" x="34" y="-84.3" font-family="Times,serif" font-size="14.00" fill="#000000">x[2]</text>
</g>
<!-- x[2]&#45;&gt;h1[0] -->
<g id="edge7" class="edge">
<title>x[2]&#45;&gt;h1[0]</title>
<path fill="none" stroke="#000000" d="M51.4245,-83.0478C65.3976,-79.0765 85.2695,-73.4287 101.4023,-68.8436"/>
<polygon fill="#000000" stroke="#000000" points="102.7021,-72.1128 111.3643,-66.0123 100.7884,-65.3795 102.7021,-72.1128"/>
</g>
<!-- x[2]&#45;&gt;h1[1] -->
<g id="edge8" class="edge">
<title>x[2]&#45;&gt;h1[1]</title>
<path fill="none" stroke="#000000" d="M48.0176,-99.9518C63.6829,-113.3086 89.2339,-135.0941 107.4449,-150.6215"/>
<polygon fill="#000000" stroke="#000000" points="105.3534,-153.4377 115.2338,-157.2625 109.8951,-148.111 105.3534,-153.4377"/>
</g>
<!-- x[2]&#45;&gt;h1[2] -->
<g id="edge9" class="edge">
<title>x[2]&#45;&gt;h1[2]</title>
<path fill="none" stroke="#000000" d="M51.4245,-92.9522C65.3976,-96.9235 85.2695,-102.5713 101.4023,-107.1564"/>
<polygon fill="#000000" stroke="#000000" points="100.7884,-110.6205 111.3643,-109.9877 102.7021,-103.8872 100.7884,-110.6205"/>
</g>
<!-- x[3] -->
<g id="node4" class="node">
<title>x[3]</title>
<ellipse fill="none" stroke="#000000" cx="34" cy="-34" rx="18" ry="18"/>
<text text-anchor="middle" x="34" y="-30.3" font-family="Times,serif" font-size="14.00" fill="#000000">x[3]</text>
</g>
<!-- x[3]&#45;&gt;h1[0] -->
<g id="edge10" class="edge">
<title>x[3]&#45;&gt;h1[0]</title>
<path fill="none" stroke="#000000" d="M51.4245,-38.9522C65.3976,-42.9235 85.2695,-48.5713 101.4023,-53.1564"/>
<polygon fill="#000000" stroke="#000000" points="100.7884,-56.6205 111.3643,-55.9877 102.7021,-49.8872 100.7884,-56.6205"/>
</g>
<!-- x[3]&#45;&gt;h1[1] -->
<g id="edge11" class="edge">
<title>x[3]&#45;&gt;h1[1]</title>
<path fill="none" stroke="#000000" d="M44.5296,-48.9632C61.0073,-72.3788 93.0186,-117.8686 112.5543,-145.6298"/>
<polygon fill="#000000" stroke="#000000" points="109.8059,-147.806 118.4232,-153.9698 115.5306,-143.7775 109.8059,-147.806"/>
</g>
<!-- x[3]&#45;&gt;h1[2] -->
<g id="edge12" class="edge">
<title>x[3]&#45;&gt;h1[2]</title>
<path fill="none" stroke="#000000" d="M48.0176,-45.9518C63.6829,-59.3086 89.2339,-81.0941 107.4449,-96.6215"/>
<polygon fill="#000000" stroke="#000000" points="105.3534,-99.4377 115.2338,-103.2625 109.8951,-94.111 105.3534,-99.4377"/>
</g>
<!-- h2[0] -->
<g id="node8" class="node">
<title>h2[0]</title>
<ellipse fill="none" stroke="#000000" cx="248" cy="-61" rx="18" ry="18"/>
<text text-anchor="middle" x="248" y="-57.3" font-family="Times,serif" font-size="14.00" fill="#000000">h2[0]</text>
</g>
<!-- h1[0]&#45;&gt;h2[0] -->
<g id="edge13" class="edge">
<title>h1[0]&#45;&gt;h2[0]</title>
<path fill="none" stroke="#000000" d="M147.0735,-61C166.2949,-61 196.9668,-61 219.4583,-61"/>
<polygon fill="#000000" stroke="#000000" points="219.7564,-64.5001 229.7564,-61 219.7563,-57.5001 219.7564,-64.5001"/>
</g>
<!-- h2[1] -->
<g id="node9" class="node">
<title>h2[1]</title>
<ellipse fill="none" stroke="#000000" cx="248" cy="-169" rx="18" ry="18"/>
<text text-anchor="middle" x="248" y="-165.3" font-family="Times,serif" font-size="14.00" fill="#000000">h2[1]</text>
</g>
<!-- h1[0]&#45;&gt;h2[1] -->
<g id="edge14" class="edge">
<title>h1[0]&#45;&gt;h2[1]</title>
<path fill="none" stroke="#000000" d="M142.6508,-73.389C163.2742,-92.106 202.5443,-127.7461 226.8774,-149.8299"/>
<polygon fill="#000000" stroke="#000000" points="224.7511,-152.6267 234.5084,-156.7555 229.4555,-147.4432 224.7511,-152.6267"/>
</g>
<!-- h2[2] -->
<g id="node10" class="node">
<title>h2[2]</title>
<ellipse fill="none" stroke="#000000" cx="248" cy="-115" rx="18" ry="18"/>
<text text-anchor="middle" x="248" y="-111.3" font-family="Times,serif" font-size="14.00" fill="#000000">h2[2]</text>
</g>
<!-- h1[0]&#45;&gt;h2[2] -->
<g id="edge15" class="edge">
<title>h1[0]&#45;&gt;h2[2]</title>
<path fill="none" stroke="#000000" d="M145.5464,-68.5085C165.4398,-77.5357 199.05,-92.7874 222.323,-103.3482"/>
<polygon fill="#000000" stroke="#000000" points="221.0415,-106.6102 231.5941,-107.5553 223.9341,-100.2358 221.0415,-106.6102"/>
</g>
<!-- h1[1]&#45;&gt;h2[0] -->
<g id="edge16" class="edge">
<title>h1[1]&#45;&gt;h2[0]</title>
<path fill="none" stroke="#000000" d="M142.6508,-156.611C163.2742,-137.894 202.5443,-102.2539 226.8774,-80.1701"/>
<polygon fill="#000000" stroke="#000000" points="229.4555,-82.5568 234.5084,-73.2445 224.7511,-77.3733 229.4555,-82.5568"/>
</g>
<!-- h1[1]&#45;&gt;h2[1] -->
<g id="edge17" class="edge">
<title>h1[1]&#45;&gt;h2[1]</title>
<path fill="none" stroke="#000000" d="M147.0735,-169C166.2949,-169 196.9668,-169 219.4583,-169"/>
<polygon fill="#000000" stroke="#000000" points="219.7564,-172.5001 229.7564,-169 219.7563,-165.5001 219.7564,-172.5001"/>
</g>
<!-- h1[1]&#45;&gt;h2[2] -->
<g id="edge18" class="edge">
<title>h1[1]&#45;&gt;h2[2]</title>
<path fill="none" stroke="#000000" d="M145.5464,-161.4915C165.4398,-152.4643 199.05,-137.2126 222.323,-126.6518"/>
<polygon fill="#000000" stroke="#000000" points="223.9341,-129.7642 231.5941,-122.4447 221.0415,-123.3898 223.9341,-129.7642"/>
</g>
<!-- h1[2]&#45;&gt;h2[0] -->
<g id="edge19" class="edge">
<title>h1[2]&#45;&gt;h2[0]</title>
<path fill="none" stroke="#000000" d="M145.5464,-107.4915C165.4398,-98.4643 199.05,-83.2126 222.323,-72.6518"/>
<polygon fill="#000000" stroke="#000000" points="223.9341,-75.7642 231.5941,-68.4447 221.0415,-69.3898 223.9341,-75.7642"/>
</g>
<!-- h1[2]&#45;&gt;h2[1] -->
<g id="edge20" class="edge">
<title>h1[2]&#45;&gt;h2[1]</title>
<path fill="none" stroke="#000000" d="M145.5464,-122.5085C165.4398,-131.5357 199.05,-146.7874 222.323,-157.3482"/>
<polygon fill="#000000" stroke="#000000" points="221.0415,-160.6102 231.5941,-161.5553 223.9341,-154.2358 221.0415,-160.6102"/>
</g>
<!-- h1[2]&#45;&gt;h2[2] -->
<g id="edge21" class="edge">
<title>h1[2]&#45;&gt;h2[2]</title>
<path fill="none" stroke="#000000" d="M147.0735,-115C166.2949,-115 196.9668,-115 219.4583,-115"/>
<polygon fill="#000000" stroke="#000000" points="219.7564,-118.5001 229.7564,-115 219.7563,-111.5001 219.7564,-118.5001"/>
</g>
<!-- y -->
<g id="node11" class="node">
<title>y</title>
<ellipse fill="none" stroke="#000000" cx="345" cy="-115" rx="18" ry="18"/>
<text text-anchor="middle" x="345" y="-111.3" font-family="Times,serif" font-size="14.00" fill="#000000">y</text>
</g>
<!-- h2[0]&#45;&gt;y -->
<g id="edge22" class="edge">
<title>h2[0]&#45;&gt;y</title>
<path fill="none" stroke="#000000" d="M264.0176,-69.917C279.1819,-78.359 302.1871,-91.166 319.8075,-100.9753"/>
<polygon fill="#000000" stroke="#000000" points="318.5189,-104.2637 328.9586,-106.0698 321.9237,-98.1476 318.5189,-104.2637"/>
</g>
<!-- h2[1]&#45;&gt;y -->
<g id="edge23" class="edge">
<title>h2[1]&#45;&gt;y</title>
<path fill="none" stroke="#000000" d="M264.0176,-160.083C279.1819,-151.641 302.1871,-138.834 319.8075,-129.0247"/>
<polygon fill="#000000" stroke="#000000" points="321.9237,-131.8524 328.9586,-123.9302 318.5189,-125.7363 321.9237,-131.8524"/>
</g>
<!-- h2[2]&#45;&gt;y -->
<g id="edge24" class="edge">
<title>h2[2]&#45;&gt;y</title>
<path fill="none" stroke="#000000" d="M266.245,-115C280.4709,-115 300.479,-115 316.7679,-115"/>
<polygon fill="#000000" stroke="#000000" points="316.8369,-118.5001 326.8369,-115 316.8368,-111.5001 316.8369,-118.5001"/>
</g>
</g>
</svg>
