<?xml version="1.0" encoding="UTF-8" standalone="no"?>
<!DOCTYPE svg PUBLIC "-//W3C//DTD SVG 1.1//EN"
 "http://www.w3.org/Graphics/SVG/1.1/DTD/svg11.dtd">
<!-- Generated by graphviz version 2.40.1 (20161225.0304)
 -->
<!-- Title: %3 Pages: 1 -->
<svg width="257pt" height="261pt"
 viewBox="0.00 0.00 257.00 261.00" xmlns="http://www.w3.org/2000/svg" xmlns:xlink="http://www.w3.org/1999/xlink">
<g id="graph0" class="graph" transform="scale(1 1) rotate(0) translate(4 257)">
<title>%3</title>
<polygon fill="#ffffff" stroke="transparent" points="-4,4 -4,-257 253,-257 253,4 -4,4"/>
<g id="clust1" class="cluster">
<title>cluster_0</title>
<polygon fill="none" stroke="#ffffff" points="8,-8 8,-245 60,-245 60,-8 8,-8"/>
<text text-anchor="middle" x="34" y="-229.8" font-family="Times,serif" font-size="14.00" fill="#000000">inputs</text>
</g>
<g id="clust2" class="cluster">
<title>cluster_1</title>
<polygon fill="none" stroke="#ffffff" points="80,-35 80,-218 168,-218 168,-35 80,-35"/>
<text text-anchor="middle" x="124" y="-202.8" font-family="Times,serif" font-size="14.00" fill="#000000">hidden layer</text>
</g>
<g id="clust3" class="cluster">
<title>cluster_2</title>
<polygon fill="none" stroke="#ffffff" points="188,-89 188,-164 242,-164 242,-89 188,-89"/>
<text text-anchor="middle" x="215" y="-148.8" font-family="Times,serif" font-size="14.00" fill="#000000">output</text>
</g>
<!-- x[0] -->
<g id="node1" class="node">
<title>x[0]</title>
<ellipse fill="none" stroke="#000000" cx="34" cy="-196" rx="18" ry="18"/>
<text text-anchor="middle" x="34" y="-192.3" font-family="Times,serif" font-size="14.00" fill="#000000">x[0]</text>
</g>
<!-- h0 -->
<g id="node5" class="node">
<title>h0</title>
<ellipse fill="none" stroke="#000000" cx="124" cy="-61" rx="18" ry="18"/>
<text text-anchor="middle" x="124" y="-57.3" font-family="Times,serif" font-size="14.00" fill="#000000">h[0]</text>
</g>
<!-- x[0]&#45;&gt;h0 -->
<g id="edge1" class="edge">
<title>x[0]&#45;&gt;h0</title>
<path fill="none" stroke="#000000" d="M44.1492,-180.7762C59.7464,-157.3804 89.7362,-112.3958 108.1948,-84.7078"/>
<polygon fill="#000000" stroke="#000000" points="111.1149,-86.6373 113.7498,-76.3753 105.2906,-82.7543 111.1149,-86.6373"/>
</g>
<!-- h1 -->
<g id="node6" class="node">
<title>h1</title>
<ellipse fill="none" stroke="#000000" cx="124" cy="-169" rx="18" ry="18"/>
<text text-anchor="middle" x="124" y="-165.3" font-family="Times,serif" font-size="14.00" fill="#000000">h[1]</text>
</g>
<!-- x[0]&#45;&gt;h1 -->
<g id="edge2" class="edge">
<title>x[0]&#45;&gt;h1</title>
<path fill="none" stroke="#000000" d="M51.3529,-190.7941C64.3017,-186.9095 82.2369,-181.5289 97.0466,-177.086"/>
<polygon fill="#000000" stroke="#000000" points="98.1278,-180.4158 106.7004,-174.1899 96.1164,-173.711 98.1278,-180.4158"/>
</g>
<!-- h2 -->
<g id="node7" class="node">
<title>h2</title>
<ellipse fill="none" stroke="#000000" cx="124" cy="-115" rx="18" ry="18"/>
<text text-anchor="middle" x="124" y="-111.3" font-family="Times,serif" font-size="14.00" fill="#000000">h[2]</text>
</g>
<!-- x[0]&#45;&gt;h2 -->
<g id="edge3" class="edge">
<title>x[0]&#45;&gt;h2</title>
<path fill="none" stroke="#000000" d="M47.6691,-183.6978C62.2907,-170.5384 85.6735,-149.4939 102.7099,-134.1611"/>
<polygon fill="#000000" stroke="#000000" points="105.4056,-136.4437 110.4972,-127.1525 100.7228,-131.2407 105.4056,-136.4437"/>
</g>
<!-- x[1] -->
<g id="node2" class="node">
<title>x[1]</title>
<ellipse fill="none" stroke="#000000" cx="34" cy="-142" rx="18" ry="18"/>
<text text-anchor="middle" x="34" y="-138.3" font-family="Times,serif" font-size="14.00" fill="#000000">x[1]</text>
</g>
<!-- x[1]&#45;&gt;h0 -->
<g id="edge4" class="edge">
<title>x[1]&#45;&gt;h0</title>
<path fill="none" stroke="#000000" d="M47.6691,-129.6978C62.2907,-116.5384 85.6735,-95.4939 102.7099,-80.1611"/>
<polygon fill="#000000" stroke="#000000" points="105.4056,-82.4437 110.4972,-73.1525 100.7228,-77.2407 105.4056,-82.4437"/>
</g>
<!-- x[1]&#45;&gt;h1 -->
<g id="edge5" class="edge">
<title>x[1]&#45;&gt;h1</title>
<path fill="none" stroke="#000000" d="M51.3529,-147.2059C64.3017,-151.0905 82.2369,-156.4711 97.0466,-160.914"/>
<polygon fill="#000000" stroke="#000000" points="96.1164,-164.289 106.7004,-163.8101 98.1278,-157.5842 96.1164,-164.289"/>
</g>
<!-- x[1]&#45;&gt;h2 -->
<g id="edge6" class="edge">
<title>x[1]&#45;&gt;h2</title>
<path fill="none" stroke="#000000" d="M51.3529,-136.7941C64.3017,-132.9095 82.2369,-127.5289 97.0466,-123.086"/>
<polygon fill="#000000" stroke="#000000" points="98.1278,-126.4158 106.7004,-120.1899 96.1164,-119.711 98.1278,-126.4158"/>
</g>
<!-- x[2] -->
<g id="node3" class="node">
<title>x[2]</title>
<ellipse fill="none" stroke="#000000" cx="34" cy="-88" rx="18" ry="18"/>
<text text-anchor="middle" x="34" y="-84.3" font-family="Times,serif" font-size="14.00" fill="#000000">x[2]</text>
</g>
<!-- x[2]&#45;&gt;h0 -->
<g id="edge7" class="edge">
<title>x[2]&#45;&gt;h0</title>
<path fill="none" stroke="#000000" d="M51.3529,-82.7941C64.3017,-78.9095 82.2369,-73.5289 97.0466,-69.086"/>
<polygon fill="#000000" stroke="#000000" points="98.1278,-72.4158 106.7004,-66.1899 96.1164,-65.711 98.1278,-72.4158"/>
</g>
<!-- x[2]&#45;&gt;h1 -->
<g id="edge8" class="edge">
<title>x[2]&#45;&gt;h1</title>
<path fill="none" stroke="#000000" d="M47.6691,-100.3022C62.2907,-113.4616 85.6735,-134.5061 102.7099,-149.8389"/>
<polygon fill="#000000" stroke="#000000" points="100.7228,-152.7593 110.4972,-156.8475 105.4056,-147.5563 100.7228,-152.7593"/>
</g>
<!-- x[2]&#45;&gt;h2 -->
<g id="edge9" class="edge">
<title>x[2]&#45;&gt;h2</title>
<path fill="none" stroke="#000000" d="M51.3529,-93.2059C64.3017,-97.0905 82.2369,-102.4711 97.0466,-106.914"/>
<polygon fill="#000000" stroke="#000000" points="96.1164,-110.289 106.7004,-109.8101 98.1278,-103.5842 96.1164,-110.289"/>
</g>
<!-- x[3] -->
<g id="node4" class="node">
<title>x[3]</title>
<ellipse fill="none" stroke="#000000" cx="34" cy="-34" rx="18" ry="18"/>
<text text-anchor="middle" x="34" y="-30.3" font-family="Times,serif" font-size="14.00" fill="#000000">x[3]</text>
</g>
<!-- x[3]&#45;&gt;h0 -->
<g id="edge10" class="edge">
<title>x[3]&#45;&gt;h0</title>
<path fill="none" stroke="#000000" d="M51.3529,-39.2059C64.3017,-43.0905 82.2369,-48.4711 97.0466,-52.914"/>
<polygon fill="#000000" stroke="#000000" points="96.1164,-56.289 106.7004,-55.8101 98.1278,-49.5842 96.1164,-56.289"/>
</g>
<!-- x[3]&#45;&gt;h1 -->
<g id="edge11" class="edge">
<title>x[3]&#45;&gt;h1</title>
<path fill="none" stroke="#000000" d="M44.1492,-49.2238C59.7464,-72.6196 89.7362,-117.6042 108.1948,-145.2922"/>
<polygon fill="#000000" stroke="#000000" points="105.2906,-147.2457 113.7498,-153.6247 111.1149,-143.3627 105.2906,-147.2457"/>
</g>
<!-- x[3]&#45;&gt;h2 -->
<g id="edge12" class="edge">
<title>x[3]&#45;&gt;h2</title>
<path fill="none" stroke="#000000" d="M47.6691,-46.3022C62.2907,-59.4616 85.6735,-80.5061 102.7099,-95.8389"/>
<polygon fill="#000000" stroke="#000000" points="100.7228,-98.7593 110.4972,-102.8475 105.4056,-93.5563 100.7228,-98.7593"/>
</g>
<!-- y -->
<g id="node8" class="node">
<title>y</title>
<ellipse fill="none" stroke="#000000" cx="215" cy="-115" rx="18" ry="18"/>
<text text-anchor="middle" x="215" y="-111.3" font-family="Times,serif" font-size="14.00" fill="#000000">y</text>
</g>
<!-- h0&#45;&gt;y -->
<g id="edge13" class="edge">
<title>h0&#45;&gt;y</title>
<path fill="none" stroke="#000000" d="M139.851,-70.4061C153.8132,-78.6913 174.3728,-90.8916 190.4596,-100.4375"/>
<polygon fill="#000000" stroke="#000000" points="188.9447,-103.6084 199.3307,-105.7017 192.5169,-97.5885 188.9447,-103.6084"/>
</g>
<!-- h1&#45;&gt;y -->
<g id="edge14" class="edge">
<title>h1&#45;&gt;y</title>
<path fill="none" stroke="#000000" d="M139.851,-159.5939C153.8132,-151.3087 174.3728,-139.1084 190.4596,-129.5625"/>
<polygon fill="#000000" stroke="#000000" points="192.5169,-132.4115 199.3307,-124.2983 188.9447,-126.3916 192.5169,-132.4115"/>
</g>
<!-- h2&#45;&gt;y -->
<g id="edge15" class="edge">
<title>h2&#45;&gt;y</title>
<path fill="none" stroke="#000000" d="M142.4152,-115C155.0791,-115 172.1442,-115 186.5459,-115"/>
<polygon fill="#000000" stroke="#000000" points="186.9228,-118.5001 196.9227,-115 186.9227,-111.5001 186.9228,-118.5001"/>
</g>
</g>
</svg>
