<?xml version="1.0" encoding="UTF-8" standalone="no"?>
<!DOCTYPE svg PUBLIC "-//W3C//DTD SVG 1.1//EN"
 "http://www.w3.org/Graphics/SVG/1.1/DTD/svg11.dtd">
<!-- Generated by graphviz version 2.40.1 (20161225.0304)
 -->
<!-- Title: Tree Pages: 1 -->
<svg width="294pt" height="224pt"
 viewBox="0.00 0.00 294.00 224.00" xmlns="http://www.w3.org/2000/svg" xmlns:xlink="http://www.w3.org/1999/xlink">
<g id="graph0" class="graph" transform="scale(1 1) rotate(0) translate(4 220)">
<title>Tree</title>
<polygon fill="#ffffff" stroke="transparent" points="-4,4 -4,-220 290,-220 290,4 -4,4"/>
<!-- 0 -->
<g id="node1" class="node">
<title>0</title>
<polygon fill="#ffffff" stroke="#000000" points="168,-216 58,-216 58,-163 168,-163 168,-216"/>
<text text-anchor="middle" x="113" y="-200.8" font-family="Times,serif" font-size="14.00" fill="#000000">X[1] &lt;= &#45;5.814</text>
<text text-anchor="middle" x="113" y="-185.8" font-family="Times,serif" font-size="14.00" fill="#000000">samples = 100</text>
<text text-anchor="middle" x="113" y="-170.8" font-family="Times,serif" font-size="14.00" fill="#000000">value = [50, 50]</text>
</g>
<!-- 1 -->
<g id="node2" class="node">
<title>1</title>
<polygon fill="#e58139" stroke="#000000" points="102,-119.5 0,-119.5 0,-81.5 102,-81.5 102,-119.5"/>
<text text-anchor="middle" x="51" y="-104.3" font-family="Times,serif" font-size="14.00" fill="#000000">samples = 25</text>
<text text-anchor="middle" x="51" y="-89.3" font-family="Times,serif" font-size="14.00" fill="#000000">value = [25, 0]</text>
</g>
<!-- 0&#45;&gt;1 -->
<g id="edge1" class="edge">
<title>0&#45;&gt;1</title>
<path fill="none" stroke="#000000" d="M94.398,-162.7971C86.7425,-151.8078 77.8794,-139.0849 70.1662,-128.0128"/>
<polygon fill="#000000" stroke="#000000" points="72.86,-125.7565 64.272,-119.5518 67.1163,-129.7577 72.86,-125.7565"/>
<text text-anchor="middle" x="59.8716" y="-140.4615" font-family="Times,serif" font-size="14.00" fill="#000000">True</text>
</g>
<!-- 2 -->
<g id="node3" class="node">
<title>2</title>
<polygon fill="#9ccef2" stroke="#000000" points="230,-127 120,-127 120,-74 230,-74 230,-127"/>
<text text-anchor="middle" x="175" y="-111.8" font-family="Times,serif" font-size="14.00" fill="#000000">X[1] &lt;= 5.348</text>
<text text-anchor="middle" x="175" y="-96.8" font-family="Times,serif" font-size="14.00" fill="#000000">samples = 75</text>
<text text-anchor="middle" x="175" y="-81.8" font-family="Times,serif" font-size="14.00" fill="#000000">value = [25, 50]</text>
</g>
<!-- 0&#45;&gt;2 -->
<g id="edge2" class="edge">
<title>0&#45;&gt;2</title>
<path fill="none" stroke="#000000" d="M131.602,-162.7971C137.5487,-154.2607 144.2241,-144.6782 150.5232,-135.6361"/>
<polygon fill="#000000" stroke="#000000" points="153.5669,-137.39 156.4111,-127.1841 147.8231,-133.3888 153.5669,-137.39"/>
<text text-anchor="middle" x="160.8115" y="-148.0938" font-family="Times,serif" font-size="14.00" fill="#000000">False</text>
</g>
<!-- 3 -->
<g id="node4" class="node">
<title>3</title>
<polygon fill="#399de5" stroke="#000000" points="166,-38 64,-38 64,0 166,0 166,-38"/>
<text text-anchor="middle" x="115" y="-22.8" font-family="Times,serif" font-size="14.00" fill="#000000">samples = 50</text>
<text text-anchor="middle" x="115" y="-7.8" font-family="Times,serif" font-size="14.00" fill="#000000">value = [0, 50]</text>
</g>
<!-- 2&#45;&gt;3 -->
<g id="edge3" class="edge">
<title>2&#45;&gt;3</title>
<path fill="none" stroke="#000000" d="M155.3538,-73.8139C148.8789,-65.0188 141.6705,-55.2274 135.1581,-46.3814"/>
<polygon fill="#000000" stroke="#000000" points="137.9213,-44.2311 129.174,-38.2531 132.2841,-48.3812 137.9213,-44.2311"/>
</g>
<!-- 4 -->
<g id="node5" class="node">
<title>4</title>
<polygon fill="#e58139" stroke="#000000" points="286,-38 184,-38 184,0 286,0 286,-38"/>
<text text-anchor="middle" x="235" y="-22.8" font-family="Times,serif" font-size="14.00" fill="#000000">samples = 25</text>
<text text-anchor="middle" x="235" y="-7.8" font-family="Times,serif" font-size="14.00" fill="#000000">value = [25, 0]</text>
</g>
<!-- 2&#45;&gt;4 -->
<g id="edge4" class="edge">
<title>2&#45;&gt;4</title>
<path fill="none" stroke="#000000" d="M194.6462,-73.8139C201.1211,-65.0188 208.3295,-55.2274 214.8419,-46.3814"/>
<polygon fill="#000000" stroke="#000000" points="217.7159,-48.3812 220.826,-38.2531 212.0787,-44.2311 217.7159,-48.3812"/>
</g>
</g>
</svg>
