<?xml version="1.0" encoding="UTF-8" standalone="no"?>
<!DOCTYPE svg PUBLIC "-//W3C//DTD SVG 1.1//EN"
 "http://www.w3.org/Graphics/SVG/1.1/DTD/svg11.dtd">
<!-- Generated by graphviz version 2.40.1 (20161225.0304)
 -->
<!-- Title: %3 Pages: 1 -->
<svg width="177pt" height="261pt"
 viewBox="0.00 0.00 177.00 261.00" xmlns="http://www.w3.org/2000/svg" xmlns:xlink="http://www.w3.org/1999/xlink">
<g id="graph0" class="graph" transform="scale(1 1) rotate(0) translate(4 257)">
<title>%3</title>
<polygon fill="#ffffff" stroke="transparent" points="-4,4 -4,-257 173,-257 173,4 -4,4"/>
<g id="clust1" class="cluster">
<title>cluster_0</title>
<polygon fill="none" stroke="#ffffff" points="8,-8 8,-245 60,-245 60,-8 8,-8"/>
<text text-anchor="middle" x="34" y="-229.8" font-family="Times,serif" font-size="14.00" fill="#000000">inputs</text>
</g>
<g id="clust2" class="cluster">
<title>cluster_2</title>
<polygon fill="none" stroke="#ffffff" points="108,-89 108,-164 162,-164 162,-89 108,-89"/>
<text text-anchor="middle" x="135" y="-148.8" font-family="Times,serif" font-size="14.00" fill="#000000">output</text>
</g>
<!-- x[0] -->
<g id="node1" class="node">
<title>x[0]</title>
<ellipse fill="none" stroke="#000000" cx="34" cy="-196" rx="18" ry="18"/>
<text text-anchor="middle" x="34" y="-192.3" font-family="Times,serif" font-size="14.00" fill="#000000">x[0]</text>
</g>
<!-- y -->
<g id="node5" class="node">
<title>y</title>
<ellipse fill="none" stroke="#000000" cx="135" cy="-115" rx="18" ry="18"/>
<text text-anchor="middle" x="135" y="-111.3" font-family="Times,serif" font-size="14.00" fill="#000000">y</text>
</g>
<!-- x[0]&#45;&gt;y -->
<g id="edge1" class="edge">
<title>x[0]&#45;&gt;y</title>
<path fill="none" stroke="#000000" d="M48.0436,-184.7373C64.8331,-171.2725 93.1341,-148.5756 112.8732,-132.7453"/>
<polygon fill="#000000" stroke="#000000" points="115.1386,-135.415 120.7501,-126.4282 110.7591,-129.9542 115.1386,-135.415"/>
<text text-anchor="middle" x="84" y="-171.8" font-family="Times,serif" font-size="14.00" fill="#000000">w[0]</text>
</g>
<!-- x[1] -->
<g id="node2" class="node">
<title>x[1]</title>
<ellipse fill="none" stroke="#000000" cx="34" cy="-142" rx="18" ry="18"/>
<text text-anchor="middle" x="34" y="-138.3" font-family="Times,serif" font-size="14.00" fill="#000000">x[1]</text>
</g>
<!-- x[1]&#45;&gt;y -->
<g id="edge2" class="edge">
<title>x[1]&#45;&gt;y</title>
<path fill="none" stroke="#000000" d="M51.5929,-137.297C67.0894,-133.1543 89.9083,-127.0542 107.7628,-122.2812"/>
<polygon fill="#000000" stroke="#000000" points="108.8519,-125.6131 117.6087,-119.6491 107.0441,-118.8505 108.8519,-125.6131"/>
<text text-anchor="middle" x="84" y="-134.8" font-family="Times,serif" font-size="14.00" fill="#000000">w[1]</text>
</g>
<!-- x[2] -->
<g id="node3" class="node">
<title>x[2]</title>
<ellipse fill="none" stroke="#000000" cx="34" cy="-88" rx="18" ry="18"/>
<text text-anchor="middle" x="34" y="-84.3" font-family="Times,serif" font-size="14.00" fill="#000000">x[2]</text>
</g>
<!-- x[2]&#45;&gt;y -->
<g id="edge3" class="edge">
<title>x[2]&#45;&gt;y</title>
<path fill="none" stroke="#000000" d="M51.5929,-92.703C67.0894,-96.8457 89.9083,-102.9458 107.7628,-107.7188"/>
<polygon fill="#000000" stroke="#000000" points="107.0441,-111.1495 117.6087,-110.3509 108.8519,-104.3869 107.0441,-111.1495"/>
<text text-anchor="middle" x="84" y="-107.8" font-family="Times,serif" font-size="14.00" fill="#000000">w[2]</text>
</g>
<!-- x[3] -->
<g id="node4" class="node">
<title>x[3]</title>
<ellipse fill="none" stroke="#000000" cx="34" cy="-34" rx="18" ry="18"/>
<text text-anchor="middle" x="34" y="-30.3" font-family="Times,serif" font-size="14.00" fill="#000000">x[3]</text>
</g>
<!-- x[3]&#45;&gt;y -->
<g id="edge4" class="edge">
<title>x[3]&#45;&gt;y</title>
<path fill="none" stroke="#000000" d="M48.0436,-45.2627C64.8331,-58.7275 93.1341,-81.4244 112.8732,-97.2547"/>
<polygon fill="#000000" stroke="#000000" points="110.7591,-100.0458 120.7501,-103.5718 115.1386,-94.585 110.7591,-100.0458"/>
<text text-anchor="middle" x="84" y="-82.8" font-family="Times,serif" font-size="14.00" fill="#000000">w[3]</text>
</g>
</g>
</svg>
